<svg width="190" height="50" viewBox="0 0 190 50" fill="none" xmlns="http://www.w3.org/2000/svg">
<path d="M48.4074 19.5898H37.4466V7.95459H26.9425C26.9425 14.3824 22.0711 19.5898 16.0579 19.5898V30.8182H26.9425V42.4534H37.4466C37.4466 36.0256 42.3942 30.8182 48.4074 30.8182V19.5898Z" fill="url(#paint0_linear_2903_36106)"/>
<path d="M59.4508 25.3592C59.4508 23.2662 59.8754 21.4047 60.7246 19.7747C61.5737 18.1245 62.7532 16.8466 64.2628 15.941C65.7913 15.0153 67.518 14.5524 69.4428 14.5524C71.8016 14.5524 73.8208 15.2165 75.5002 16.5447C77.1797 17.8729 78.3025 19.6841 78.8686 21.9783H73.5471C73.1509 21.0928 72.5847 20.4186 71.8488 19.9558C71.1317 19.4929 70.3108 19.2615 69.3862 19.2615C67.8954 19.2615 66.6877 19.8149 65.763 20.9217C64.8384 22.0286 64.376 23.5077 64.376 25.3592C64.376 27.2106 64.8384 28.6897 65.763 29.7966C66.6877 30.9034 67.8954 31.4568 69.3862 31.4568C70.3108 31.4568 71.1317 31.2254 71.8488 30.7625C72.5847 30.2997 73.1509 29.6255 73.5471 28.74H78.8686C78.3025 31.0342 77.1797 32.8454 75.5002 34.1736C73.8208 35.4817 71.8016 36.1357 69.4428 36.1357C67.518 36.1357 65.7913 35.6829 64.2628 34.7773C62.7532 33.8516 61.5737 32.5737 60.7246 30.9437C59.8754 29.3136 59.4508 27.4521 59.4508 25.3592Z" fill="white"/>
<path d="M87.2628 13.6468V35.9848H82.4225V13.6468H87.2628Z" fill="white"/>
<path d="M93.7945 17.3899C92.9454 17.3899 92.2472 17.1283 91.6999 16.6051C91.1715 16.0617 90.9073 15.3976 90.9073 14.6128C90.9073 13.8078 91.1715 13.1437 91.6999 12.6205C92.2472 12.0771 92.9454 11.8054 93.7945 11.8054C94.6248 11.8054 95.3042 12.0771 95.8326 12.6205C96.3798 13.1437 96.6534 13.8078 96.6534 14.6128C96.6534 15.3976 96.3798 16.0617 95.8326 16.6051C95.3042 17.1283 94.6248 17.3899 93.7945 17.3899ZM96.2005 19.1407V35.9848H91.3602V19.1407H96.2005Z" fill="white"/>
<path d="M105.138 21.5255C105.61 20.7406 106.261 20.1067 107.091 19.6237C107.922 19.1407 108.894 18.8992 110.007 18.8992C111.309 18.8992 112.488 19.2514 113.545 19.9558C114.602 20.6601 115.432 21.6663 116.036 22.9744C116.659 24.2825 116.97 25.8019 116.97 27.5326C116.97 29.2633 116.659 30.7927 116.036 32.1209C115.432 33.429 114.602 34.4453 113.545 35.1698C112.488 35.8741 111.309 36.2263 110.007 36.2263C108.912 36.2263 107.941 35.9848 107.091 35.5018C106.261 35.0188 105.61 34.395 105.138 33.6303V44.0144H100.298V19.1407H105.138V21.5255ZM112.045 27.5326C112.045 26.2446 111.705 25.2384 111.026 24.5139C110.365 23.7693 109.545 23.397 108.563 23.397C107.601 23.397 106.78 23.7693 106.101 24.5139C105.44 25.2585 105.11 26.2748 105.11 27.5628C105.11 28.8507 105.44 29.867 106.101 30.6116C106.78 31.3562 107.601 31.7285 108.563 31.7285C109.526 31.7285 110.347 31.3562 111.026 30.6116C111.705 29.8469 112.045 28.8205 112.045 27.5326Z" fill="white"/>
<path d="M119.137 27.5326C119.137 25.8019 119.439 24.2825 120.043 22.9744C120.665 21.6663 121.505 20.6601 122.562 19.9558C123.619 19.2514 124.798 18.8992 126.1 18.8992C127.213 18.8992 128.185 19.1407 129.016 19.6237C129.865 20.1067 130.516 20.7406 130.969 21.5255V19.1407H135.809V35.9848H130.969V33.6001C130.497 34.3849 129.836 35.0188 128.987 35.5018C128.157 35.9848 127.185 36.2263 126.072 36.2263C124.789 36.2263 123.619 35.8741 122.562 35.1698C121.505 34.4453 120.665 33.429 120.043 32.1209C119.439 30.7927 119.137 29.2633 119.137 27.5326ZM130.969 27.5628C130.969 26.2748 130.629 25.2585 129.95 24.5139C129.289 23.7693 128.478 23.397 127.515 23.397C126.553 23.397 125.732 23.7693 125.053 24.5139C124.392 25.2384 124.062 26.2446 124.062 27.5326C124.062 28.8205 124.392 29.8469 125.053 30.6116C125.732 31.3562 126.553 31.7285 127.515 31.7285C128.478 31.7285 129.289 31.3562 129.95 30.6116C130.629 29.867 130.969 28.8507 130.969 27.5628Z" fill="white"/>
<path d="M144.741 21.9481C145.307 21.0224 146.014 20.2979 146.864 19.7747C147.713 19.2313 148.656 18.9596 149.694 18.9596V24.4234H148.364C147.156 24.4234 146.25 24.7051 145.646 25.2686C145.043 25.812 144.741 26.7779 144.741 28.1665V35.9848H139.9V19.1407H144.741V21.9481Z" fill="white"/>
<path d="M151.635 27.5326C151.635 25.8019 151.937 24.2825 152.541 22.9744C153.164 21.6663 154.003 20.6601 155.06 19.9558C156.117 19.2514 157.296 18.8992 158.598 18.8992C159.712 18.8992 160.684 19.1407 161.514 19.6237C162.363 20.1067 163.014 20.7406 163.467 21.5255V19.1407H168.307V35.9848H163.467V33.6001C162.995 34.3849 162.335 35.0188 161.486 35.5018C160.655 35.9848 159.683 36.2263 158.57 36.2263C157.287 36.2263 156.117 35.8741 155.06 35.1698C154.003 34.4453 153.164 33.429 152.541 32.1209C151.937 30.7927 151.635 29.2633 151.635 27.5326ZM163.467 27.5628C163.467 26.2748 163.127 25.2585 162.448 24.5139C161.787 23.7693 160.976 23.397 160.014 23.397C159.051 23.397 158.23 23.7693 157.551 24.5139C156.891 25.2384 156.56 26.2446 156.56 27.5326C156.56 28.8205 156.891 29.8469 157.551 30.6116C158.23 31.3562 159.051 31.7285 160.014 31.7285C160.976 31.7285 161.787 31.3562 162.448 30.6116C163.127 29.867 163.467 28.8507 163.467 27.5628Z" fill="white"/>
<defs>
<linearGradient id="paint0_linear_2903_36106" x1="33.3744" y1="-8.30064" x2="0.959902" y2="21.6767" gradientUnits="userSpaceOnUse">
<stop stop-color="#FEDC2A"/>
<stop offset="0.51418" stop-color="#DD5789"/>
<stop offset="1" stop-color="#7A2C9E"/>
</linearGradient>
</defs>
</svg>
